<mxfile host="app.diagrams.net" agent="Mozilla/5.0 (Windows NT 10.0; Win64; x64) AppleWebKit/537.36 (KHTML, like Gecko) Chrome/136.0.0.0 Safari/537.36 Edg/136.0.0.0" version="26.3.0">
  <diagram name="PÃ¡gina-1" id="VD2EuMpZDvNrIsIxyTrt">
    <mxGraphModel dx="918" dy="520" grid="1" gridSize="10" guides="1" tooltips="1" connect="1" arrows="1" fold="1" page="1" pageScale="1" pageWidth="827" pageHeight="1169" math="1" shadow="0">
      <root>
        <mxCell id="0" />
        <mxCell id="1" parent="0" />
        <mxCell id="o0W0pkzJsEj7L0cBzfmL-86" style="edgeStyle=orthogonalEdgeStyle;rounded=0;orthogonalLoop=1;jettySize=auto;html=1;entryX=0;entryY=0.5;entryDx=0;entryDy=0;" edge="1" parent="1" source="o0W0pkzJsEj7L0cBzfmL-2" target="o0W0pkzJsEj7L0cBzfmL-41">
          <mxGeometry relative="1" as="geometry" />
        </mxCell>
        <mxCell id="o0W0pkzJsEj7L0cBzfmL-87" style="edgeStyle=orthogonalEdgeStyle;rounded=0;orthogonalLoop=1;jettySize=auto;html=1;entryX=0;entryY=0.5;entryDx=0;entryDy=0;" edge="1" parent="1" source="o0W0pkzJsEj7L0cBzfmL-2" target="o0W0pkzJsEj7L0cBzfmL-73">
          <mxGeometry relative="1" as="geometry" />
        </mxCell>
        <mxCell id="o0W0pkzJsEj7L0cBzfmL-88" style="edgeStyle=orthogonalEdgeStyle;rounded=0;orthogonalLoop=1;jettySize=auto;html=1;entryX=0;entryY=0.5;entryDx=0;entryDy=0;" edge="1" parent="1" source="o0W0pkzJsEj7L0cBzfmL-2" target="o0W0pkzJsEj7L0cBzfmL-82">
          <mxGeometry relative="1" as="geometry" />
        </mxCell>
        <mxCell id="o0W0pkzJsEj7L0cBzfmL-2" value="&lt;b&gt;ESPACIO DE ESTADOS&lt;/b&gt;&lt;div&gt;&lt;b&gt;ORIGINAL&lt;/b&gt;&lt;/div&gt;" style="rounded=0;whiteSpace=wrap;html=1;fillColor=#008a00;fontColor=#ffffff;strokeColor=none;" vertex="1" parent="1">
          <mxGeometry x="40" y="282.5" width="120" height="50" as="geometry" />
        </mxCell>
        <mxCell id="o0W0pkzJsEj7L0cBzfmL-8" value="&lt;b&gt;FORMA&lt;/b&gt;&lt;div&gt;&lt;b&gt;DESTINO&lt;/b&gt;&lt;/div&gt;" style="rounded=0;whiteSpace=wrap;html=1;fillColor=#6a00ff;fontColor=#ffffff;strokeColor=none;" vertex="1" parent="1">
          <mxGeometry x="650" y="279.11" width="126" height="50" as="geometry" />
        </mxCell>
        <mxCell id="o0W0pkzJsEj7L0cBzfmL-36" value="&lt;span style=&quot;color: rgba(0, 0, 0, 0); font-family: monospace; font-size: 0px; text-align: start; text-wrap-mode: nowrap;&quot;&gt;%3CmxGraphModel%3E%3Croot%3E%3CmxCell%20id%3D%220%22%2F%3E%3CmxCell%20id%3D%221%22%20parent%3D%220%22%2F%3E%3CmxCell%20id%3D%222%22%20value%3D%22%22%20style%3D%22shape%3Dimage%3BverticalLabelPosition%3Dbottom%3BlabelBackgroundColor%3Ddefault%3BverticalAlign%3Dtop%3Baspect%3Dfixed%3BimageAspect%3D0%3Bimage%3Ddata%3Aimage%2Fpng%2CiVBORw0KGgoAAAANSUhEUgAAAX0AAADDCAYAAABuzsHgAAAAAXNSR0IArs4c6QAAAARnQU1BAACxjwv8YQUAAAAJcEhZcwAADsMAAA7DAcdvqGQAABVVSURBVHhe7d1%2FaJrX%2Fgfwd770goV%2BwcAKChvUskINLczQQQ3bH3H0jxr6hRl6YUq%2F0LkO7uwKu8l3sG%2By%2FdGb9o%2FO9EJvugu7SQt3mEKHDla0sBH3R4YZdJgvtOigJRZWUFhBoQWFBj7fPzSJOfFXrCbqeb%2FgofacJ0bzPL6f43nOc54%2BEREQEZEW%2FkMtICKi3sXQJyLSCEOfiEgjDH0iIo0w9ImINMLQJyLSCEOfiEgjDH0iIo0w9ImINMLQJyLSCEOfiEgjDH0iIo0w9ImINMLQJyLSCEOfiEgjDH0iIo0w9ImINMLQJyLSCEOfiEgjDH0iIo0w9ImINMLQJyLSCEOfiEgjfSIiaiF1smXMfXgdS2pxHZZ3pzBx0qQWE1FbZRD52yRCv6vldbzpw%2Bw5m1raEgz9rhOBp28E82pxHabP4khfbs9ORETVpDB99CDGH6jldZwKIP%2B9Gwa1vAXYvUNEpBG29LtOeUvfiZnUHEYbaQ4YjDAZG1mRiFqp8DSD3KpaWsHjGTjsl5AEW%2FpUQ%2F8rJphMDSw7FPiFpxnkCmpplyrkkHnaK2%2BGAADPc8js8A5qaPQz%2Bkq%2F%2BqNtwdCn1nk8jaH9ZvR%2FFFFrulLko36Y9w9h%2BrFaQ90phenhfpj7z6M39tDmMPSpdVaBQunfnrAKAIXeeT9U2kHzaqlWGPpERBph6BMRaYShT0SkEYY%2BEZFGGPpERBph6BMRaYShT0SkEYY%2BEZFGGPpERBph6BMRaYShT0SkEYY%2BEZFGGPpERBph6BMRaYShT0SkEYY%2BEZFGGPpERBph6BMRaYShT0SkEYY%2BEZFGGPpERBph6BMRaYShT0SkEYY%2BEZFGGPpERBph6BMRaYShT0SkEYY%2BEZFGGPpERBph6BMRaYShT0SkEYY%2BEZFGGPpERBph6BMRaYShT0SkEYY%2BEZFGGPpERBph6FPr7DPCDAB71Iru1G80ADD0zPuhvTDuL%2F6rM4Y%2BtY7JiwURyA2nWtOV7NfyEIlj7IBaQ93JBG9UIDKL3thDm8PQJyLSCEOfiEgjDH0iIo0w9ImINMLQJyLSCEOfiEgjDH0iIo0w9ImINMLQp%2Fb49RLecc0hpZZ3pQzm%2F%2FsdjP9cUCuo2zyZh8cxjqXnaoU%2BGPrUFoWHMUS%2Fu4S5B2pNN0oj8WMU01dDYOx3uUwC0Z%2Bm4b%2Bj75bsExFRC5tWSCF6Zxk5tbxFjDYnHK8b1GLNRODpG8E8AMCJwLMw3PvUdTrA8wg8%2B0cQejeI9LwLRrW%2By6S%2BHMDBT4GpZAITh9Va6h4pTB89iHFMIbE8AWsnzav0aBoDh8aRBIBTAeS%2Fd6MdadfS0F%2B6sBdD%2F1COoEYTTGooPc0gU77aHiNMJuXtqesAwJkw5N86z5qBnQ%2F93BKuX5zDchNfh7NLcwg9AEynA1ied8PUAR%2BwzHeTmLybUYvrW00gfHMJmT12TCxGMHW82w9jXW41g9DFSUSa2JRIhjH3cwY4PoHY3SnYO2VT7lDoQ1omJj4DBICYTk5I%2BH5W8uoqa753C1BcFwafLLxQVyh5kZd01C8OY3Fd65UVdQ0NhcW99reDUwLP1PoWW5oQ056139fkYvRKuN2vsyFpCbxr2Pr6trnYrnI%2F3HXpgLhKedP8YhP%2FQ%2FWJd9FDv1jXXtupQPX8fEmt69P%2FOYC5ggGOawmkI1NwHjFWPUolHyyvPzac88BRrQW4xwDT8BgWQj4YANhet6hrULsdn0L6hUBkO0sW4TPF5pPlbBAr6Vk42%2FltpGEmuEP5Cq%2B3zpL0wwYARgf8i1nEP%2BF%2BuOtMbgTzFbZVnSVxxQYAMJ7wI%2FZHHGOvq0%2Fc%2B1oW%2BtH5OeC9AIIfW9UqRQaxH5Pr%2F3PYixuhprcdcMGKgXpPTR2ggMj7Fox8A7jm01i54YKl2tG%2FGzyaxqB1HMvHJhBLLWDsrU7pC6DtSv19EAOfLsP2WQypH8Zgf0VdQw%2BtCf3VKEI3bfBfaeCE3WoM0Z%2FW%2FuOAa7iBRNhjAGCDVcOjcveJInQzB9uVGILvmdTKrpO6E8Cy0Y3wjx3U90tNSCE0vwzjmTCil%2B31c6qHtSb0F0MInDwP76tqRQW%2FRBFae2yyY7CRXMikkTk80Fln2qkKJ2ZfCOL%2F0xtfyyyfxCF%2FBODUOSV6ggVjS4Lsv51aBz5aFfrRbyPwfNzYmebkYnR9rLPh9Eixr7SeXAZpmxW9ESMa6LWDc6%2B9H11xOwItCf3VKEJ3nfAMqxWVbO7Pdw3bN9VW9TABHGXkExG9rJcP%2FacFWC6PoaH4VvrzHQ39EFDoH4TvBEN%2FZxWQujsNz5tmmK3v4IN%2FLCG3qq6zIffLNEatg%2FB8s3FQ7yhPlzH313cw8JoZg%2F81idAj9SKQMqsZhD4cxIBjEtF2XWlITcv93xzGHQMwvzaIkS9CSNXYlHgSwgdvDuCdL6Jtu2i066hjONtq0SeGtXGoh6ckodZTA3ZinH5WwmdNYv04LOlnIpLyix0Q45mwZNVVRUTSs%2BJYf02uNr2ml5D0i%2F1Vh8zcy0pe8hI%2BZyiO0U6qKxbFPjGuj%2BW2fM69tJMkrtrFdGJG4tm8SD4sXgMEx%2FySqHitT0zGStf4ABaZuK%2FWd5iuG6ffgE39%2BScc7KPvUJl%2FjWLyUBSJa87i1dQHrLAAyH0zjrlH6tqqJFJP1LJdtLqE86fiGL%2B%2FAN8xIwwwwHrIAmAZ45cj6tpbpB516DcXHf18HiP3xpH8wQeb0QAYrMURfb%2BOY%2BquurIqhdRDtUxPOxj6Tfbn0856Pg%2FfVTvmykffZNIoXu2eRLxSBpq8WLg3ge1cslTI5XZk8rLkRS9SF6%2FDVTZkI%2FN7ae7P5WTFWUDtV1MInFJLKyjkkMlkkMlkkNuJN6O1JCbPpTD1Vfmw8AxSpUbI8m8VtyT8qQB0n7hF1dK5d2paDcHzp9HSnDEOzKYX4G1kuGYrPE8iejfZxj49I6wnHbDuyFWn7Z17J%2FOPIbgQQuzjjY1TuDWCve4IABv8qTjGDmz6kZIC5l174fmu%2FrbN3T2PQeccnIt5zLyl1rbQahTnD4XgejhTdtX3MibNg7iUAXA2DLlRJRIeTOLg0UtIfxxD%2FprSQHkaweSfz2MuacTgcD9SP8WQzBSAVx0YuzqLqdOWhkay0Tb8dB4Hv3Vh5SvHRtmvkzC%2FeQkZAN6IYPZk%2BQ9sSH5xEAN%2FS8PX7v3tZXXf3Dt17GJ%2FfnkfbbsW4%2BmgpNVf3Bbt7NNPyMQBh8xueiNpmTle%2Bn3HZ2q%2Bx%2Fy8U2DwSWxLRVbS6RWJ3%2FaL%2B421uW8M4ltUV2yt%2FLxLjB8rrya6th8axBfdXLVZXCZMEMfXm99xdmlC7IddMrO4%2BexG%2FmFQvK%2Bv%2FZ2q9TG30Iu8ZNNpyb7s9u%2B056koL4F3jVv2l4W%2FlPalWvN3iYjcmxAT1P26A%2FVan%2F5u9ufbr2a3zMHR6iV724UajdsukQOGvRgpfyNPggj8UnzoeH%2B05ns07DMCdpvSzRPF%2BCErbKfO4%2Fp9A7y35uDeVN8%2BudV%2B%2BNybW%2BnRb%2BeK%2B6HBW2eYsRH9rxhgtZa941wIvjNL8H4XhE%2BZjsHwuguzyTgmDgD4ZRwDzrlSl1gb%2FDaNob170W82o%2F8%2FzfjgTpPfYTvtearKAUYfPOWt9NUoQjeLiVJz%2Fi4AMPaj32DFQK2dVyfqUaA90jI7vNEqdofUempcO1v6W61csTb8u9JfO8R6ud53uLXX3%2F6W%2FhYvNv52ps%2Fiaq0iJj6DW4JlLcjE59a6M2zmv3evf6P1RtTa1gif3fgsAcXRK7VfVWWd9jzbsj5Tr0km7qmVikWfGN4LqqWdp6da%2Bk2Oz6dKzHCc88J7zgvvOVebzyMkMfdV6cztKQ9cdX5XfDEOx9s7%2BR1uewrfzpXOhZjgddW5FvxRDFG7A0PrLcglXP%2FSgNFh8%2Bb1FIaTHrhKj4M%2FLim1rdG%2FrzU9vZ32PI0rYP5mcUvC5MXoMbV%2Bs9RSFEPDQ2px59lnhWfts33K2p7%2BfGCHWvq72J%2Ffe3awpV%2FW8nDO12t3xMR3oE7fqsiutvTDZ0p%2FN9OE1Gvnp792iP1aWSdw%2BbUIp4M1WmEr4j9SWm94tuY5kKZlF2TscOl3GOxVrzeoq9Oep1Hb%2BsaWltlhu8z8rpbnJXHDLY4jVrEc80rwYfkWzUv63qxMnLKL9bhdrAes4vgkKCvVN3pr9FJLfzf786l5qTuB4kiCRmZD%2FTmAyElX7b7VXRVB6Jvio%2FpzPmUQvpWH592yTuB9ezdaXskU0hs1O8%2FogD9ZOp%2BUj2Gs2ds3dtrzNOrHUOkbmwGjztpbEpkw5vMejCqTQeZueeB9eB7B%2Bwks%2FDmG0UMDmHwAoJDEdacDk%2Fcs8MzHkFiKIZGcg%2B27URy0TmK5xlXp3WIHQl8Zn39iF%2Fp2VgvIlcZTt2fJodADO8NmBSz9VLrZzREnHHVOgkXnI3CeLhtO12l%2BjSFcelh3H3wSxJwaFPvcmPvBj7FzEwh%2B56txTUISydLN4I1HBmqe%2BKbmLC%2Bub0k4jyuVisy3c8i71QEISfhvmjH9v8Upli2HbQBSuHTtOqZPeJH%2BIoLZv5QNwTbY4f3QCjy%2BhPGbrT5JvQvUpn%2FLvQiWdUfszrCphXNrv7%2BNy8lA5SkKWm6nuncSMrX2lf1sWK3c7FlAXIcnGuy226XundDaiT%2Bb%2BFNq5WaJz63iqtudVcW9CTEBAhjFG2nyOaim4Hul%2FbLuCeOETByuMC3Iok9sZd1CG4MVLOKLVv4Ur61TvzvpJfRM9075%2FPkNtBjbwXEti3Q63dYle9vdY%2FN0p5D4rfjIaq3dIbd8eQr4YrKju%2B1Sj9Zu0WmFteLFZSW5eYx%2F68LUe3W6s6qI3pguDtU8NomxE809B9WSQup%2B6aG1OD1INblb4widntpy8eJyJI6h9QkcC1haLPZEGM%2FMYGq48qd4%2FSruHtD20N%2FUnz88VHMjtY3BCJPJ1NbFWGdkS%2FexYvCIWlbBb9Pw%2FeSFv8mQ3CnFr%2FD15BC5MAXz1SYPYE%2FmcOmfheINO%2F7u401%2F2sICa0ObMgLfRTP8n6pbsoDCIS%2B8b67tr8uI%2FQgAFvguVLvBSgqxpWKKDfXAFO9tDv0O6M%2BnJlkwVDp5m7xfacIdAKtJTJ8NYvTm2O4czLfjTQeKZxyWkawyaVzujg%2Fj8MN%2FspkDWA7zH32AKIxwfB2G%2F61mnoMaMfh26dxRlbmTigfvceCKH84tjTED7Ge9sK2V%2FxZFtFDstx%2BqdgL6%2BRKivwKAHY63u3%2B7tjf0n0cRWh%2Bfb8Pg0c3V1NnsF6aKo1y%2BmcR0qatnXW4Jk8MepC5H2j9aoxVMHoydNQJIYupiZMs8TJlbo3D804HgjWqtvdqSXzrguWOE41oM4XPd3xrsZKb3xuA1AngwhUn16t%2FVDOb%2F7MD1t4MInKq%2FJTOL0eIItRMjGNpygCgq3AkiAgBHRuFs5JawnU7t5G%2Fas6yk0%2BnSsiLxyIx4104Elk7cOS8vSGJ9nbSk%2F2jXqYpetlMncovy92fFfRiCPVZxXwlI8HZA%2FOccYnndJbObxjY3apdO5IqIvMhK%2BHO7mAAxvTUmM7eDEvxqQpxvmMT%2BeUyyda8xqCz7vVuMMIrjWqJtJ99I8UdYJt4yCWAS%2ByczErwdlJnPnWIz2WVCmRepurwEThU%2FS9Yr1U4J5yXwbr11WmSHTuS2KPRXxH%2BsPOAbXbxSZ1wIbbGzob8m%2F0dCFm4HJXg7LPFU9iV2yF0M%2FTX5rKzcC0vwdlCC0cTLTRKW9Ittj0mcXzc2dolaK59dkXgkKMHbQVm4n5X8tg7cMfEZULzBSrWpHJ4FxAUIYBX%2Fw7Lybf2eBnVX6NPO2Z3Qb50OCP1WyYbFbWLgd63kVDFkDW4JV%2Fkc5eedxc%2FakfLhoSviH67%2BM03bodBvb58%2BUa%2FKReCxepG7GK3ch79aQI53Vulo9fvzMwj8q3h3NccFz8ZghUchRF71wFHxZzofQ59ou1aTmD5ZI%2FBRvCGG88LGcGXqNAVE70QBANa3i1fmbhUvTRRph%2BvkxgVGS9cisF9wtG9CtDZj6BNtSw6RDz2Ivl8j8AEUlmPIHDB3bTD0vo3x%2Ba7hagOO165V6Ud%2F6ahQeHAJk7kxjB%2Fr3i3L0CdqWA6R9x24bg%2FUDHys5hC4FYPNWnsaZtpFT%2BKIFwAccGKk6pBjC3z%2FHIMFcYRvhjD%2FpQcjV4yYudbcsN5OwdCnHVV4sIzihAgFpH%2Fvrs6P5JcOjNxcRuTDAfT19VVf%2FtSPD%2B70b77rFnWWV32ILC8gvuSHvUbfvOEtP1aeJTF5xADr6esI%2F9sHazcnPkOf2i%2BF604zzK%2BZsbevD3uPTpamawZC7r3o6%2BvDXrMZ5tc8mFevmOokj6fh%2BXRt%2Fp5GWGBh5nc04xsO2EwNdNPsM8I67ITtgLEnuusY%2BtRmFvgiaaR%2FTyNf4d7CIoJ8Oo307wG4O7kFdWAM8QqvvfqyAC9DnzoQQ5%2BISCMMfSIijTD0iYg0wtAnItIIQ5%2BISCMMfSIijTD0iYg0wtAnItIIQ5%2BISCMMfWqpwtMMemYa%2BUIOmae98mYIAPA8h0zP7KDNYehT6zyextB%2BM%2Fo%2FKt54ottFPuqHef8Qph%2BrNdSdUpge7oe5%2F3zxRueaYuhT66yieNOQVbWiS60CQKF33g%2BVdtC8WqoVhj4RkUYY%2BkREGmHoExFphKFPRKQRhj4RkUYY%2BkREGmHoExFphKFPRKQRhj4RkUYY%2BkREGmHoExFphKFPRKQRhj4RkUYY%2BkREGmHoExFphKFPRKQRhj4RkUYY%2BkREGmHoExFphKFPRKQRhj4RkUYY%2BkREGmHoExFphKFPRKQRhj4RkUYY%2BkREGmHoExFphKFPRKQRhj4RkUYY%2BkREGmHoExFphKFPRKQRhj4RkUYY%2BkREGmHoExFphKFPRKQRhj4RkUYY%2BtQ6%2B4wwA8AetaI79RsNAAw9835oL4z7i%2F%2FqjKFPrWPyYkEEcsOp1nQl%2B7U8ROIYO6DWUHcywRsViMyiN%2FbQ5vSJiKiF1Mki8PSNYL70P4PJBGMDLVHLX6OIfWJVi4morVK47hzC1H21vILVHDKZQvHxqQDy37thUNdpAYZ%2B19kc%2Bo0yfRZH%2BrJNLSaitkph%2BuhBjD9Qy%2BtoY%2Bize4eISCNs6RMRaYQtfSIijTD0iYg0wtAnItIIQ5%2BISCMMfSIijTD0iYg0wtAnItIIQ5%2BISCMMfSIijTD0iYg0wtAnItIIQ5%2BISCMMfSIijTD0iYg0wtAnItIIQ5%2BISCMMfSIijTD0iYg0wtAnItIIQ5%2BISCMMfSIijTD0iYg0wtAnItIIQ5%2BISCP%2FD%2F%2FdZLCzl672AAAAAElFTkSuQmCC%3B%22%20vertex%3D%221%22%20parent%3D%221%22%3E%3CmxGeometry%20x%3D%22520%22%20y%3D%22346.12%22%20width%3D%22191%22%20height%3D%2297.76%22%20as%3D%22geometry%22%2F%3E%3C%2FmxCell%3E%3C%2Froot%3E%3C%2FmxGraphModel%3E&lt;/span&gt;&lt;span style=&quot;color: rgba(0, 0, 0, 0); font-family: monospace; font-size: 0px; text-align: start; text-wrap-mode: nowrap;&quot;&gt;%3CmxGraphModel%3E%3Croot%3E%3CmxCell%20id%3D%220%22%2F%3E%3CmxCell%20id%3D%221%22%20parent%3D%220%22%2F%3E%3CmxCell%20id%3D%222%22%20value%3D%22%22%20style%3D%22shape%3Dimage%3BverticalLabelPosition%3Dbottom%3BlabelBackgroundColor%3Ddefault%3BverticalAlign%3Dtop%3Baspect%3Dfixed%3BimageAspect%3D0%3Bimage%3Ddata%3Aimage%2Fpng%2CiVBORw0KGgoAAAANSUhEUgAAAX0AAADDCAYAAABuzsHgAAAAAXNSR0IArs4c6QAAAARnQU1BAACxjwv8YQUAAAAJcEhZcwAADsMAAA7DAcdvqGQAABVVSURBVHhe7d1%2FaJrX%2Fgfwd770goV%2BwcAKChvUskINLczQQQ3bH3H0jxr6hRl6YUq%2F0LkO7uwKu8l3sG%2By%2FdGb9o%2FO9EJvugu7SQt3mEKHDla0sBH3R4YZdJgvtOigJRZWUFhBoQWFBj7fPzSJOfFXrCbqeb%2FgofacJ0bzPL6f43nOc54%2BEREQEZEW%2FkMtICKi3sXQJyLSCEOfiEgjDH0iIo0w9ImINMLQJyLSCEOfiEgjDH0iIo0w9ImINMLQJyLSCEOfiEgjDH0iIo0w9ImINMLQJyLSCEOfiEgjDH0iIo0w9ImINMLQJyLSCEOfiEgjDH0iIo0w9ImINMLQJyLSCEOfiEgjfSIiaiF1smXMfXgdS2pxHZZ3pzBx0qQWE1FbZRD52yRCv6vldbzpw%2Bw5m1raEgz9rhOBp28E82pxHabP4khfbs9ORETVpDB99CDGH6jldZwKIP%2B9Gwa1vAXYvUNEpBG29LtOeUvfiZnUHEYbaQ4YjDAZG1mRiFqp8DSD3KpaWsHjGTjsl5AEW%2FpUQ%2F8rJphMDSw7FPiFpxnkCmpplyrkkHnaK2%2BGAADPc8js8A5qaPQz%2Bkq%2F%2BqNtwdCn1nk8jaH9ZvR%2FFFFrulLko36Y9w9h%2BrFaQ90phenhfpj7z6M39tDmMPSpdVaBQunfnrAKAIXeeT9U2kHzaqlWGPpERBph6BMRaYShT0SkEYY%2BEZFGGPpERBph6BMRaYShT0SkEYY%2BEZFGGPpERBph6BMRaYShT0SkEYY%2BEZFGGPpERBph6BMRaYShT0SkEYY%2BEZFGGPpERBph6BMRaYShT0SkEYY%2BEZFGGPpERBph6BMRaYShT0SkEYY%2BEZFGGPpERBph6BMRaYShT0SkEYY%2BEZFGGPpERBph6BMRaYShT0SkEYY%2BEZFGGPpERBph6BMRaYShT0SkEYY%2BEZFGGPpERBph6FPr7DPCDAB71Iru1G80ADD0zPuhvTDuL%2F6rM4Y%2BtY7JiwURyA2nWtOV7NfyEIlj7IBaQ93JBG9UIDKL3thDm8PQJyLSCEOfiEgjDH0iIo0w9ImINMLQJyLSCEOfiEgjDH0iIo0w9ImINMLQp%2Fb49RLecc0hpZZ3pQzm%2F%2FsdjP9cUCuo2zyZh8cxjqXnaoU%2BGPrUFoWHMUS%2Fu4S5B2pNN0oj8WMU01dDYOx3uUwC0Z%2Bm4b%2Bj75bsExFRC5tWSCF6Zxk5tbxFjDYnHK8b1GLNRODpG8E8AMCJwLMw3PvUdTrA8wg8%2B0cQejeI9LwLRrW%2By6S%2BHMDBT4GpZAITh9Va6h4pTB89iHFMIbE8AWsnzav0aBoDh8aRBIBTAeS%2Fd6MdadfS0F%2B6sBdD%2F1COoEYTTGooPc0gU77aHiNMJuXtqesAwJkw5N86z5qBnQ%2F93BKuX5zDchNfh7NLcwg9AEynA1ied8PUAR%2BwzHeTmLybUYvrW00gfHMJmT12TCxGMHW82w9jXW41g9DFSUSa2JRIhjH3cwY4PoHY3SnYO2VT7lDoQ1omJj4DBICYTk5I%2BH5W8uoqa753C1BcFwafLLxQVyh5kZd01C8OY3Fd65UVdQ0NhcW99reDUwLP1PoWW5oQ056139fkYvRKuN2vsyFpCbxr2Pr6trnYrnI%2F3HXpgLhKedP8YhP%2FQ%2FWJd9FDv1jXXtupQPX8fEmt69P%2FOYC5ggGOawmkI1NwHjFWPUolHyyvPzac88BRrQW4xwDT8BgWQj4YANhet6hrULsdn0L6hUBkO0sW4TPF5pPlbBAr6Vk42%2FltpGEmuEP5Cq%2B3zpL0wwYARgf8i1nEP%2BF%2BuOtMbgTzFbZVnSVxxQYAMJ7wI%2FZHHGOvq0%2Fc%2B1oW%2BtH5OeC9AIIfW9UqRQaxH5Pr%2F3PYixuhprcdcMGKgXpPTR2ggMj7Fox8A7jm01i54YKl2tG%2FGzyaxqB1HMvHJhBLLWDsrU7pC6DtSv19EAOfLsP2WQypH8Zgf0VdQw%2BtCf3VKEI3bfBfaeCE3WoM0Z%2FW%2FuOAa7iBRNhjAGCDVcOjcveJInQzB9uVGILvmdTKrpO6E8Cy0Y3wjx3U90tNSCE0vwzjmTCil%2B31c6qHtSb0F0MInDwP76tqRQW%2FRBFae2yyY7CRXMikkTk80Fln2qkKJ2ZfCOL%2F0xtfyyyfxCF%2FBODUOSV6ggVjS4Lsv51aBz5aFfrRbyPwfNzYmebkYnR9rLPh9Eixr7SeXAZpmxW9ESMa6LWDc6%2B9H11xOwItCf3VKEJ3nfAMqxWVbO7Pdw3bN9VW9TABHGXkExG9rJcP%2FacFWC6PoaH4VvrzHQ39EFDoH4TvBEN%2FZxWQujsNz5tmmK3v4IN%2FLCG3qq6zIffLNEatg%2FB8s3FQ7yhPlzH313cw8JoZg%2F81idAj9SKQMqsZhD4cxIBjEtF2XWlITcv93xzGHQMwvzaIkS9CSNXYlHgSwgdvDuCdL6Jtu2i066hjONtq0SeGtXGoh6ckodZTA3ZinH5WwmdNYv04LOlnIpLyix0Q45mwZNVVRUTSs%2BJYf02uNr2ml5D0i%2F1Vh8zcy0pe8hI%2BZyiO0U6qKxbFPjGuj%2BW2fM69tJMkrtrFdGJG4tm8SD4sXgMEx%2FySqHitT0zGStf4ABaZuK%2FWd5iuG6ffgE39%2BScc7KPvUJl%2FjWLyUBSJa87i1dQHrLAAyH0zjrlH6tqqJFJP1LJdtLqE86fiGL%2B%2FAN8xIwwwwHrIAmAZ45cj6tpbpB516DcXHf18HiP3xpH8wQeb0QAYrMURfb%2BOY%2BquurIqhdRDtUxPOxj6Tfbn0856Pg%2FfVTvmykffZNIoXu2eRLxSBpq8WLg3ge1cslTI5XZk8rLkRS9SF6%2FDVTZkI%2FN7ae7P5WTFWUDtV1MInFJLKyjkkMlkkMlkkNuJN6O1JCbPpTD1Vfmw8AxSpUbI8m8VtyT8qQB0n7hF1dK5d2paDcHzp9HSnDEOzKYX4G1kuGYrPE8iejfZxj49I6wnHbDuyFWn7Z17J%2FOPIbgQQuzjjY1TuDWCve4IABv8qTjGDmz6kZIC5l174fmu%2FrbN3T2PQeccnIt5zLyl1rbQahTnD4XgejhTdtX3MibNg7iUAXA2DLlRJRIeTOLg0UtIfxxD%2FprSQHkaweSfz2MuacTgcD9SP8WQzBSAVx0YuzqLqdOWhkay0Tb8dB4Hv3Vh5SvHRtmvkzC%2FeQkZAN6IYPZk%2BQ9sSH5xEAN%2FS8PX7v3tZXXf3Dt17GJ%2FfnkfbbsW4%2BmgpNVf3Bbt7NNPyMQBh8xueiNpmTle%2Bn3HZ2q%2Bx%2Fy8U2DwSWxLRVbS6RWJ3%2FaL%2B421uW8M4ltUV2yt%2FLxLjB8rrya6th8axBfdXLVZXCZMEMfXm99xdmlC7IddMrO4%2BexG%2FmFQvK%2Bv%2FZ2q9TG30Iu8ZNNpyb7s9u%2B056koL4F3jVv2l4W%2FlPalWvN3iYjcmxAT1P26A%2FVan%2F5u9ufbr2a3zMHR6iV724UajdsukQOGvRgpfyNPggj8UnzoeH%2B05ns07DMCdpvSzRPF%2BCErbKfO4%2Fp9A7y35uDeVN8%2BudV%2B%2BNybW%2BnRb%2BeK%2B6HBW2eYsRH9rxhgtZa941wIvjNL8H4XhE%2BZjsHwuguzyTgmDgD4ZRwDzrlSl1gb%2FDaNob170W82o%2F8%2FzfjgTpPfYTvtearKAUYfPOWt9NUoQjeLiVJz%2Fi4AMPaj32DFQK2dVyfqUaA90jI7vNEqdofUempcO1v6W61csTb8u9JfO8R6ud53uLXX3%2F6W%2FhYvNv52ps%2Fiaq0iJj6DW4JlLcjE59a6M2zmv3evf6P1RtTa1gif3fgsAcXRK7VfVWWd9jzbsj5Tr0km7qmVikWfGN4LqqWdp6da%2Bk2Oz6dKzHCc88J7zgvvOVebzyMkMfdV6cztKQ9cdX5XfDEOx9s7%2BR1uewrfzpXOhZjgddW5FvxRDFG7A0PrLcglXP%2FSgNFh8%2Bb1FIaTHrhKj4M%2FLim1rdG%2FrzU9vZ32PI0rYP5mcUvC5MXoMbV%2Bs9RSFEPDQ2px59lnhWfts33K2p7%2BfGCHWvq72J%2Ffe3awpV%2FW8nDO12t3xMR3oE7fqsiutvTDZ0p%2FN9OE1Gvnp792iP1aWSdw%2BbUIp4M1WmEr4j9SWm94tuY5kKZlF2TscOl3GOxVrzeoq9Oep1Hb%2BsaWltlhu8z8rpbnJXHDLY4jVrEc80rwYfkWzUv63qxMnLKL9bhdrAes4vgkKCvVN3pr9FJLfzf786l5qTuB4kiCRmZD%2FTmAyElX7b7VXRVB6Jvio%2FpzPmUQvpWH592yTuB9ezdaXskU0hs1O8%2FogD9ZOp%2BUj2Gs2ds3dtrzNOrHUOkbmwGjztpbEpkw5vMejCqTQeZueeB9eB7B%2Bwks%2FDmG0UMDmHwAoJDEdacDk%2Fcs8MzHkFiKIZGcg%2B27URy0TmK5xlXp3WIHQl8Zn39iF%2Fp2VgvIlcZTt2fJodADO8NmBSz9VLrZzREnHHVOgkXnI3CeLhtO12l%2BjSFcelh3H3wSxJwaFPvcmPvBj7FzEwh%2B56txTUISydLN4I1HBmqe%2BKbmLC%2Bub0k4jyuVisy3c8i71QEISfhvmjH9v8Upli2HbQBSuHTtOqZPeJH%2BIoLZv5QNwTbY4f3QCjy%2BhPGbrT5JvQvUpn%2FLvQiWdUfszrCphXNrv7%2BNy8lA5SkKWm6nuncSMrX2lf1sWK3c7FlAXIcnGuy226XundDaiT%2Bb%2BFNq5WaJz63iqtudVcW9CTEBAhjFG2nyOaim4Hul%2FbLuCeOETByuMC3Iok9sZd1CG4MVLOKLVv4Ur61TvzvpJfRM9075%2FPkNtBjbwXEti3Q63dYle9vdY%2FN0p5D4rfjIaq3dIbd8eQr4YrKju%2B1Sj9Zu0WmFteLFZSW5eYx%2F68LUe3W6s6qI3pguDtU8NomxE809B9WSQup%2B6aG1OD1INblb4widntpy8eJyJI6h9QkcC1haLPZEGM%2FMYGq48qd4%2FSruHtD20N%2FUnz88VHMjtY3BCJPJ1NbFWGdkS%2FexYvCIWlbBb9Pw%2FeSFv8mQ3CnFr%2FD15BC5MAXz1SYPYE%2FmcOmfheINO%2F7u401%2F2sICa0ObMgLfRTP8n6pbsoDCIS%2B8b67tr8uI%2FQgAFvguVLvBSgqxpWKKDfXAFO9tDv0O6M%2BnJlkwVDp5m7xfacIdAKtJTJ8NYvTm2O4czLfjTQeKZxyWkawyaVzujg%2Fj8MN%2FspkDWA7zH32AKIxwfB2G%2F61mnoMaMfh26dxRlbmTigfvceCKH84tjTED7Ge9sK2V%2FxZFtFDstx%2BqdgL6%2BRKivwKAHY63u3%2B7tjf0n0cRWh%2Bfb8Pg0c3V1NnsF6aKo1y%2BmcR0qatnXW4Jk8MepC5H2j9aoxVMHoydNQJIYupiZMs8TJlbo3D804HgjWqtvdqSXzrguWOE41oM4XPd3xrsZKb3xuA1AngwhUn16t%2FVDOb%2F7MD1t4MInKq%2FJTOL0eIItRMjGNpygCgq3AkiAgBHRuFs5JawnU7t5G%2Fas6yk0%2BnSsiLxyIx4104Elk7cOS8vSGJ9nbSk%2F2jXqYpetlMncovy92fFfRiCPVZxXwlI8HZA%2FOccYnndJbObxjY3apdO5IqIvMhK%2BHO7mAAxvTUmM7eDEvxqQpxvmMT%2BeUyyda8xqCz7vVuMMIrjWqJtJ99I8UdYJt4yCWAS%2ByczErwdlJnPnWIz2WVCmRepurwEThU%2FS9Yr1U4J5yXwbr11WmSHTuS2KPRXxH%2BsPOAbXbxSZ1wIbbGzob8m%2F0dCFm4HJXg7LPFU9iV2yF0M%2FTX5rKzcC0vwdlCC0cTLTRKW9Ittj0mcXzc2dolaK59dkXgkKMHbQVm4n5X8tg7cMfEZULzBSrWpHJ4FxAUIYBX%2Fw7Lybf2eBnVX6NPO2Z3Qb50OCP1WyYbFbWLgd63kVDFkDW4JV%2Fkc5eedxc%2FakfLhoSviH67%2BM03bodBvb58%2BUa%2FKReCxepG7GK3ch79aQI53Vulo9fvzMwj8q3h3NccFz8ZghUchRF71wFHxZzofQ59ou1aTmD5ZI%2FBRvCGG88LGcGXqNAVE70QBANa3i1fmbhUvTRRph%2BvkxgVGS9cisF9wtG9CtDZj6BNtSw6RDz2Ivl8j8AEUlmPIHDB3bTD0vo3x%2Ba7hagOO165V6Ud%2F6ahQeHAJk7kxjB%2Fr3i3L0CdqWA6R9x24bg%2FUDHys5hC4FYPNWnsaZtpFT%2BKIFwAccGKk6pBjC3z%2FHIMFcYRvhjD%2FpQcjV4yYudbcsN5OwdCnHVV4sIzihAgFpH%2Fvrs6P5JcOjNxcRuTDAfT19VVf%2FtSPD%2B70b77rFnWWV32ILC8gvuSHvUbfvOEtP1aeJTF5xADr6esI%2F9sHazcnPkOf2i%2BF604zzK%2BZsbevD3uPTpamawZC7r3o6%2BvDXrMZ5tc8mFevmOokj6fh%2BXRt%2Fp5GWGBh5nc04xsO2EwNdNPsM8I67ITtgLEnuusY%2BtRmFvgiaaR%2FTyNf4d7CIoJ8Oo307wG4O7kFdWAM8QqvvfqyAC9DnzoQQ5%2BISCMMfSIijTD0iYg0wtAnItIIQ5%2BISCMMfSIijTD0iYg0wtAnItIIQ5%2BISCMMfWqpwtMMemYa%2BUIOmae98mYIAPA8h0zP7KDNYehT6zyextB%2BM%2Fo%2FKt54ottFPuqHef8Qph%2BrNdSdUpge7oe5%2F3zxRueaYuhT66yieNOQVbWiS60CQKF33g%2BVdtC8WqoVhj4RkUYY%2BkREGmHoExFphKFPRKQRhj4RkUYY%2BkREGmHoExFphKFPRKQRhj4RkUYY%2BkREGmHoExFphKFPRKQRhj4RkUYY%2BkREGmHoExFphKFPRKQRhj4RkUYY%2BkREGmHoExFphKFPRKQRhj4RkUYY%2BkREGmHoExFphKFPRKQRhj4RkUYY%2BkREGmHoExFphKFPRKQRhj4RkUYY%2BkREGmHoExFphKFPRKQRhj4RkUYY%2BkREGmHoExFphKFPRKQRhj4RkUYY%2BtQ6%2B4wwA8AetaI79RsNAAw9835oL4z7i%2F%2FqjKFPrWPyYkEEcsOp1nQl%2B7U8ROIYO6DWUHcywRsViMyiN%2FbQ5vSJiKiF1Mki8PSNYL70P4PJBGMDLVHLX6OIfWJVi4morVK47hzC1H21vILVHDKZQvHxqQDy37thUNdpAYZ%2B19kc%2Bo0yfRZH%2BrJNLSaitkph%2BuhBjD9Qy%2BtoY%2Bize4eISCNs6RMRaYQtfSIijTD0iYg0wtAnItIIQ5%2BISCMMfSIijTD0iYg0wtAnItIIQ5%2BISCMMfSIijTD0iYg0wtAnItIIQ5%2BISCMMfSIijTD0iYg0wtAnItIIQ5%2BISCMMfSIijTD0iYg0wtAnItIIQ5%2BISCMMfSIijTD0iYg0wtAnItIIQ5%2BISCP%2FD%2F%2FdZLCzl672AAAAAElFTkSuQmCC%3B%22%20vertex%3D%221%22%20parent%3D%221%22%3E%3CmxGeometry%20x%3D%22520%22%20y%3D%22346.12%22%20width%3D%22191%22%20height%3D%2297.76%22%20as%3D%22geometry%22%2F%3E%3C%2FmxCell%3E%3C%2Froot%3E%3C%2FmxGraphModel%3E&lt;/span&gt;" style="whiteSpace=wrap;html=1;" vertex="1" parent="1">
          <mxGeometry x="260" y="195" width="140" height="75" as="geometry" />
        </mxCell>
        <mxCell id="o0W0pkzJsEj7L0cBzfmL-41" value="&lt;b&gt;HACIA FORMA DIAGONAL&lt;/b&gt;" style="whiteSpace=wrap;html=1;fillColor=#0050ef;fontColor=#ffffff;strokeColor=default;" vertex="1" parent="1">
          <mxGeometry x="260" y="160" width="140" height="35" as="geometry" />
        </mxCell>
        <mxCell id="o0W0pkzJsEj7L0cBzfmL-62" value="&lt;div&gt;&lt;b&gt;CAMBIO DE BASE&lt;/b&gt;&lt;/div&gt;" style="whiteSpace=wrap;html=1;fillColor=#0050ef;fontColor=#ffffff;strokeColor=default;" vertex="1" parent="1">
          <mxGeometry x="490" y="189.11" width="123.5" height="30" as="geometry" />
        </mxCell>
        <mxCell id="o0W0pkzJsEj7L0cBzfmL-92" style="edgeStyle=orthogonalEdgeStyle;rounded=0;orthogonalLoop=1;jettySize=auto;html=1;entryX=0;entryY=0.5;entryDx=0;entryDy=0;" edge="1" parent="1" source="o0W0pkzJsEj7L0cBzfmL-63" target="o0W0pkzJsEj7L0cBzfmL-8">
          <mxGeometry relative="1" as="geometry" />
        </mxCell>
        <mxCell id="o0W0pkzJsEj7L0cBzfmL-63" value="$$ A&#39; = T^{-1}T$$&lt;div&gt;$$ B&#39; = T^{-1}B$$&lt;/div&gt;&lt;div&gt;$$ C&#39; = CT$$&lt;/div&gt;&lt;div&gt;$$ D&#39; = D$$&lt;/div&gt;" style="whiteSpace=wrap;html=1;" vertex="1" parent="1">
          <mxGeometry x="490" y="249.11" width="123.5" height="110" as="geometry" />
        </mxCell>
        <mxCell id="o0W0pkzJsEj7L0cBzfmL-66" value="$$ z = T^{-1}x$$" style="whiteSpace=wrap;html=1;" vertex="1" parent="1">
          <mxGeometry x="490" y="219.11" width="123.5" height="30" as="geometry" />
        </mxCell>
        <mxCell id="o0W0pkzJsEj7L0cBzfmL-70" value="" style="shape=image;verticalLabelPosition=bottom;labelBackgroundColor=default;verticalAlign=top;aspect=fixed;imageAspect=0;image=data:image/png,iVBORw0KGgoAAAANSUhEUgAAAX0AAADDCAYAAABuzsHgAAAAAXNSR0IArs4c6QAAAARnQU1BAACxjwv8YQUAAAAJcEhZcwAADsMAAA7DAcdvqGQAABVVSURBVHhe7d1/aJrX/gfwd770goV+wcAKChvUskINLczQQQ3bH3H0jxr6hRl6YUq/0LkO7uwKu8l3sG+y/dGb9o/O9EJvugu7SQt3mEKHDla0sBH3R4YZdJgvtOigJRZWUFhBoQWFBj7fPzSJOfFXrCbqeb/gofacJ0bzPL6f43nOc54+EREQEZEW/kMtICKi3sXQJyLSCEOfiEgjDH0iIo0w9ImINMLQJyLSCEOfiEgjDH0iIo0w9ImINMLQJyLSCEOfiEgjDH0iIo0w9ImINMLQJyLSCEOfiEgjDH0iIo0w9ImINMLQJyLSCEOfiEgjDH0iIo0w9ImINMLQJyLSCEOfiEgjfSIiaiF1smXMfXgdS2pxHZZ3pzBx0qQWE1FbZRD52yRCv6vldbzpw+w5m1raEgz9rhOBp28E82pxHabP4khfbs9ORETVpDB99CDGH6jldZwKIP+9Gwa1vAXYvUNEpBG29LtOeUvfiZnUHEYbaQ4YjDAZG1mRiFqp8DSD3KpaWsHjGTjsl5AEW/pUQ/8rJphMDSw7FPiFpxnkCmpplyrkkHnaK2+GAADPc8js8A5qaPQz+kq/+qNtwdCn1nk8jaH9ZvR/FFFrulLko36Y9w9h+rFaQ90phenhfpj7z6M39tDmMPSpdVaBQunfnrAKAIXeeT9U2kHzaqlWGPpERBph6BMRaYShT0SkEYY+EZFGGPpERBph6BMRaYShT0SkEYY+EZFGGPpERBph6BMRaYShT0SkEYY+EZFGGPpERBph6BMRaYShT0SkEYY+EZFGGPpERBph6BMRaYShT0SkEYY+EZFGGPpERBph6BMRaYShT0SkEYY+EZFGGPpERBph6BMRaYShT0SkEYY+EZFGGPpERBph6BMRaYShT0SkEYY+EZFGGPpERBph6BMRaYShT0SkEYY+EZFGGPpERBph6FPr7DPCDAB71Iru1G80ADD0zPuhvTDuL/6rM4Y+tY7JiwURyA2nWtOV7NfyEIlj7IBaQ93JBG9UIDKL3thDm8PQJyLSCEOfiEgjDH0iIo0w9ImINMLQJyLSCEOfiEgjDH0iIo0w9ImINMLQp/b49RLecc0hpZZ3pQzm//sdjP9cUCuo2zyZh8cxjqXnaoU+GPrUFoWHMUS/u4S5B2pNN0oj8WMU01dDYOx3uUwC0Z+m4b+j75bsExFRC5tWSCF6Zxk5tbxFjDYnHK8b1GLNRODpG8E8AMCJwLMw3PvUdTrA8wg8+0cQejeI9LwLRrW+y6S+HMDBT4GpZAITh9Va6h4pTB89iHFMIbE8AWsnzav0aBoDh8aRBIBTAeS/d6MdadfS0F+6sBdD/1COoEYTTGooPc0gU77aHiNMJuXtqesAwJkw5N86z5qBnQ/93BKuX5zDchNfh7NLcwg9AEynA1ied8PUAR+wzHeTmLybUYvrW00gfHMJmT12TCxGMHW82w9jXW41g9DFSUSa2JRIhjH3cwY4PoHY3SnYO2VT7lDoQ1omJj4DBICYTk5I+H5W8uoqa753C1BcFwafLLxQVyh5kZd01C8OY3Fd65UVdQ0NhcW99reDUwLP1PoWW5oQ056139fkYvRKuN2vsyFpCbxr2Pr6trnYrnI/3HXpgLhKedP8YhP/Q/WJd9FDv1jXXtupQPX8fEmt69P/OYC5ggGOawmkI1NwHjFWPUolHyyvPzac88BRrQW4xwDT8BgWQj4YANhet6hrULsdn0L6hUBkO0sW4TPF5pPlbBAr6Vk42/ltpGEmuEP5Cq+3zpL0wwYARgf8i1nEP+F+uOtMbgTzFbZVnSVxxQYAMJ7wI/ZHHGOvq0/c+1oW+tH5OeC9AIIfW9UqRQaxH5Pr/3PYixuhprcdcMGKgXpPTR2ggMj7Fox8A7jm01i54YKl2tG/GzyaxqB1HMvHJhBLLWDsrU7pC6DtSv19EAOfLsP2WQypH8Zgf0VdQw+tCf3VKEI3bfBfaeCE3WoM0Z/W/uOAa7iBRNhjAGCDVcOjcveJInQzB9uVGILvmdTKrpO6E8Cy0Y3wjx3U90tNSCE0vwzjmTCil+31c6qHtSb0F0MInDwP76tqRQW/RBFae2yyY7CRXMikkTk80Fln2qkKJ2ZfCOL/0xtfyyyfxCF/BODUOSV6ggVjS4Lsv51aBz5aFfrRbyPwfNzYmebkYnR9rLPh9Eixr7SeXAZpmxW9ESMa6LWDc6+9H11xOwItCf3VKEJ3nfAMqxWVbO7Pdw3bN9VW9TABHGXkExG9rJcP/acFWC6PoaH4VvrzHQ39EFDoH4TvBEN/ZxWQujsNz5tmmK3v4IN/LCG3qq6zIffLNEatg/B8s3FQ7yhPlzH313cw8JoZg/81idAj9SKQMqsZhD4cxIBjEtF2XWlITcv93xzGHQMwvzaIkS9CSNXYlHgSwgdvDuCdL6Jtu2i066hjONtq0SeGtXGoh6ckodZTA3ZinH5WwmdNYv04LOlnIpLyix0Q45mwZNVVRUTSs+JYf02uNr2ml5D0i/1Vh8zcy0pe8hI+ZyiO0U6qKxbFPjGuj+W2fM69tJMkrtrFdGJG4tm8SD4sXgMEx/ySqHitT0zGStf4ABaZuK/Wd5iuG6ffgE39+Scc7KPvUJl/jWLyUBSJa87i1dQHrLAAyH0zjrlH6tqqJFJP1LJdtLqE86fiGL+/AN8xIwwwwHrIAmAZ45cj6tpbpB516DcXHf18HiP3xpH8wQeb0QAYrMURfb+OY+quurIqhdRDtUxPOxj6Tfbn0856Pg/fVTvmykffZNIoXu2eRLxSBpq8WLg3ge1cslTI5XZk8rLkRS9SF6/DVTZkI/N7ae7P5WTFWUDtV1MInFJLKyjkkMlkkMlkkNuJN6O1JCbPpTD1Vfmw8AxSpUbI8m8VtyT8qQB0n7hF1dK5d2paDcHzp9HSnDEOzKYX4G1kuGYrPE8iejfZxj49I6wnHbDuyFWn7Z17J/OPIbgQQuzjjY1TuDWCve4IABv8qTjGDmz6kZIC5l174fmu/rbN3T2PQeccnIt5zLyl1rbQahTnD4XgejhTdtX3MibNg7iUAXA2DLlRJRIeTOLg0UtIfxxD/prSQHkaweSfz2MuacTgcD9SP8WQzBSAVx0YuzqLqdOWhkay0Tb8dB4Hv3Vh5SvHRtmvkzC/eQkZAN6IYPZk+Q9sSH5xEAN/S8PX7v3tZXXf3Dt17GJ/fnkfbbsW4+mgpNVf3Bbt7NNPyMQBh8xueiNpmTle+n3HZ2q+x/y8U2DwSWxLRVbS6RWJ3/aL+421uW8M4ltUV2yt/LxLjB8rrya6th8axBfdXLVZXCZMEMfXm99xdmlC7IddMrO4+exG/mFQvK+v/Z2q9TG30Iu8ZNNpyb7s9u+056koL4F3jVv2l4W/lPalWvN3iYjcmxAT1P26A/Van/5u9ufbr2a3zMHR6iV724UajdsukQOGvRgpfyNPggj8UnzoeH+05ns07DMCdpvSzRPF+CErbKfO4/p9A7y35uDeVN8+udV++NybW+nRb+eK+6HBW2eYsRH9rxhgtZa941wIvjNL8H4XhE+ZjsHwuguzyTgmDgD4ZRwDzrlSl1gb/DaNob170W82o/8/zfjgTpPfYTvtearKAUYfPOWt9NUoQjeLiVJz/i4AMPaj32DFQK2dVyfqUaA90jI7vNEqdofUempcO1v6W61csTb8u9JfO8R6ud53uLXX3/6W/hYvNv52ps/iaq0iJj6DW4JlLcjE59a6M2zmv3evf6P1RtTa1gif3fgsAcXRK7VfVWWd9jzbsj5Tr0km7qmVikWfGN4LqqWdp6da+k2Oz6dKzHCc88J7zgvvOVebzyMkMfdV6cztKQ9cdX5XfDEOx9s7+R1uewrfzpXOhZjgddW5FvxRDFG7A0PrLcglXP/SgNFh8+b1FIaTHrhKj4M/Lim1rdG/rzU9vZ32PI0rYP5mcUvC5MXoMbV+s9RSFEPDQ2px59lnhWfts33K2p7+fGCHWvq72J/fe3awpV/W8nDO12t3xMR3oE7fqsiutvTDZ0p/N9OE1Gvnp792iP1aWSdw+bUIp4M1WmEr4j9SWm94tuY5kKZlF2TscOl3GOxVrzeoq9Oep1Hb+saWltlhu8z8rpbnJXHDLY4jVrEc80rwYfkWzUv63qxMnLKL9bhdrAes4vgkKCvVN3pr9FJLfzf786l5qTuB4kiCRmZD/TmAyElX7b7VXRVB6Jvio/pzPmUQvpWH592yTuB9ezdaXskU0hs1O8/ogD9ZOp+Uj2Gs2ds3dtrzNOrHUOkbmwGjztpbEpkw5vMejCqTQeZueeB9eB7B+wks/DmG0UMDmHwAoJDEdacDk/cs8MzHkFiKIZGcg+27URy0TmK5xlXp3WIHQl8Zn39iF/p2VgvIlcZTt2fJodADO8NmBSz9VLrZzREnHHVOgkXnI3CeLhtO12l+jSFcelh3H3wSxJwaFPvcmPvBj7FzEwh+56txTUISydLN4I1HBmqe+KbmLC+ub0k4jyuVisy3c8i71QEISfhvmjH9v8Upli2HbQBSuHTtOqZPeJH+IoLZv5QNwTbY4f3QCjy+hPGbrT5JvQvUpn/LvQiWdUfszrCphXNrv7+Ny8lA5SkKWm6nuncSMrX2lf1sWK3c7FlAXIcnGuy226XundDaiT+b+FNq5WaJz63iqtudVcW9CTEBAhjFG2nyOaim4Hul/bLuCeOETByuMC3Iok9sZd1CG4MVLOKLVv4Ur61TvzvpJfRM9075/PkNtBjbwXEti3Q63dYle9vdY/N0p5D4rfjIaq3dIbd8eQr4YrKju+1Sj9Zu0WmFteLFZSW5eYx/68LUe3W6s6qI3pguDtU8NomxE809B9WSQup+6aG1OD1INblb4widntpy8eJyJI6h9QkcC1haLPZEGM/MYGq48qd4/SruHtD20N/Unz88VHMjtY3BCJPJ1NbFWGdkS/exYvCIWlbBb9Pw/eSFv8mQ3CnFr/D15BC5MAXz1SYPYE/mcOmfheINO/7u401/2sICa0ObMgLfRTP8n6pbsoDCIS+8b67tr8uI/QgAFvguVLvBSgqxpWKKDfXAFO9tDv0O6M+nJlkwVDp5m7xfacIdAKtJTJ8NYvTm2O4czLfjTQeKZxyWkawyaVzujg/j8MN/spkDWA7zH32AKIxwfB2G/61mnoMaMfh26dxRlbmTigfvceCKH84tjTED7Ge9sK2V/xZFtFDstx+qdgL6+RKivwKAHY63u3+7tjf0n0cRWh+fb8Pg0c3V1NnsF6aKo1y+mcR0qatnXW4Jk8MepC5H2j9aoxVMHoydNQJIYupiZMs8TJlbo3D804HgjWqtvdqSXzrguWOE41oM4XPd3xrsZKb3xuA1AngwhUn16t/VDOb/7MD1t4MInKq/JTOL0eIItRMjGNpygCgq3AkiAgBHRuFs5JawnU7t5G/as6yk0+nSsiLxyIx4104Elk7cOS8vSGJ9nbSk/2jXqYpetlMncovy92fFfRiCPVZxXwlI8HZA/OccYnndJbObxjY3apdO5IqIvMhK+HO7mAAxvTUmM7eDEvxqQpxvmMT+eUyyda8xqCz7vVuMMIrjWqJtJ99I8UdYJt4yCWAS+yczErwdlJnPnWIz2WVCmRepurwEThU/S9Yr1U4J5yXwbr11WmSHTuS2KPRXxH+sPOAbXbxSZ1wIbbGzob8m/0dCFm4HJXg7LPFU9iV2yF0M/TX5rKzcC0vwdlCC0cTLTRKW9Ittj0mcXzc2dolaK59dkXgkKMHbQVm4n5X8tg7cMfEZULzBSrWpHJ4FxAUIYBX/w7Lybf2eBnVX6NPO2Z3Qb50OCP1WyYbFbWLgd63kVDFkDW4JV/kc5eedxc/akfLhoSviH67+M03bodBvb58+Ua/KReCxepG7GK3ch79aQI53Vulo9fvzMwj8q3h3NccFz8ZghUchRF71wFHxZzofQ59ou1aTmD5ZI/BRvCGG88LGcGXqNAVE70QBANa3i1fmbhUvTRRph+vkxgVGS9cisF9wtG9CtDZj6BNtSw6RDz2Ivl8j8AEUlmPIHDB3bTD0vo3x+a7hagOO165V6Ud/6ahQeHAJk7kxjB/r3i3L0CdqWA6R9x24bg/UDHys5hC4FYPNWnsaZtpFT+KIFwAccGKk6pBjC3z/HIMFcYRvhjD/pQcjV4yYudbcsN5OwdCnHVV4sIzihAgFpH/vrs6P5JcOjNxcRuTDAfT19VVf/tSPD+70b77rFnWWV32ILC8gvuSHvUbfvOEtP1aeJTF5xADr6esI/9sHazcnPkOf2i+F604zzK+ZsbevD3uPTpamawZC7r3o6+vDXrMZ5tc8mFevmOokj6fh+XRt/p5GWGBh5nc04xsO2EwNdNPsM8I67ITtgLEnuusY+tRmFvgiaaR/TyNf4d7CIoJ8Oo307wG4O7kFdWAM8QqvvfqyAC9DnzoQQ5+ISCMMfSIijTD0iYg0wtAnItIIQ5+ISCMMfSIijTD0iYg0wtAnItIIQ5+ISCMMfWqpwtMMemYa+UIOmae98mYIAPA8h0zP7KDNYehT6zyextB+M/o/Kt54ottFPuqHef8Qph+rNdSdUpge7oe5/3zxRueaYuhT66yieNOQVbWiS60CQKF33g+VdtC8WqoVhj4RkUYY+kREGmHoExFphKFPRKQRhj4RkUYY+kREGmHoExFphKFPRKQRhj4RkUYY+kREGmHoExFphKFPRKQRhj4RkUYY+kREGmHoExFphKFPRKQRhj4RkUYY+kREGmHoExFphKFPRKQRhj4RkUYY+kREGmHoExFphKFPRKQRhj4RkUYY+kREGmHoExFphKFPRKQRhj4RkUYY+kREGmHoExFphKFPRKQRhj4RkUYY+kREGmHoExFphKFPRKQRhj4RkUYY+tQ6+4wwA8AetaI79RsNAAw9835oL4z7i//qjKFPrWPyYkEEcsOp1nQl+7U8ROIYO6DWUHcywRsViMyiN/bQ5vSJiKiF1Mki8PSNYL70P4PJBGMDLVHLX6OIfWJVi4morVK47hzC1H21vILVHDKZQvHxqQDy37thUNdpAYZ+19kc+o0yfRZH+rJNLSaitkph+uhBjD9Qy+toY+ize4eISCNs6RMRaYQtfSIijTD0iYg0wtAnItIIQ5+ISCMMfSIijTD0iYg0wtAnItIIQ5+ISCMMfSIijTD0iYg0wtAnItIIQ5+ISCMMfSIijTD0iYg0wtAnItIIQ5+ISCMMfSIijTD0iYg0wtAnItIIQ5+ISCMMfSIijTD0iYg0wtAnItIIQ5+ISCP/D//dZLCzl672AAAAAElFTkSuQmCC;" vertex="1" parent="1">
          <mxGeometry x="264.75" y="199.11" width="130.49" height="66.79" as="geometry" />
        </mxCell>
        <mxCell id="o0W0pkzJsEj7L0cBzfmL-71" style="edgeStyle=orthogonalEdgeStyle;rounded=0;orthogonalLoop=1;jettySize=auto;html=1;exitX=0.5;exitY=1;exitDx=0;exitDy=0;" edge="1" parent="1" source="o0W0pkzJsEj7L0cBzfmL-36" target="o0W0pkzJsEj7L0cBzfmL-36">
          <mxGeometry relative="1" as="geometry" />
        </mxCell>
        <mxCell id="o0W0pkzJsEj7L0cBzfmL-73" value="&lt;b&gt;HACIA FORMA&lt;/b&gt;&lt;div&gt;&lt;b&gt;CONTROLADORA&lt;/b&gt;&lt;/div&gt;" style="whiteSpace=wrap;html=1;fillColor=#0050ef;fontColor=#ffffff;strokeColor=default;" vertex="1" parent="1">
          <mxGeometry x="260" y="290" width="140" height="35" as="geometry" />
        </mxCell>
        <mxCell id="o0W0pkzJsEj7L0cBzfmL-79" value="$$T = Q_c W$$" style="whiteSpace=wrap;html=1;" vertex="1" parent="1">
          <mxGeometry x="260" y="325" width="140" height="25" as="geometry" />
        </mxCell>
        <mxCell id="o0W0pkzJsEj7L0cBzfmL-48" value="$$T = Q_c Q_{cc}^{-1}$$" style="whiteSpace=wrap;html=1;" vertex="1" parent="1">
          <mxGeometry x="260" y="350" width="140" height="30" as="geometry" />
        </mxCell>
        <mxCell id="o0W0pkzJsEj7L0cBzfmL-82" value="&lt;b&gt;HACIA FORMA&lt;/b&gt;&lt;div&gt;&lt;b&gt;OBSERVADORA&lt;/b&gt;&lt;/div&gt;" style="whiteSpace=wrap;html=1;fillColor=#0050ef;fontColor=#ffffff;strokeColor=default;" vertex="1" parent="1">
          <mxGeometry x="260" y="410" width="140" height="35" as="geometry" />
        </mxCell>
        <mxCell id="o0W0pkzJsEj7L0cBzfmL-83" value="$$T = (Q_{oo}Q_o^{-1} )^{T}$$" style="whiteSpace=wrap;html=1;" vertex="1" parent="1">
          <mxGeometry x="260" y="445" width="140" height="35" as="geometry" />
        </mxCell>
        <mxCell id="o0W0pkzJsEj7L0cBzfmL-93" value="" style="endArrow=none;html=1;rounded=0;exitX=1;exitY=0.5;exitDx=0;exitDy=0;" edge="1" parent="1" source="o0W0pkzJsEj7L0cBzfmL-82">
          <mxGeometry width="50" height="50" relative="1" as="geometry">
            <mxPoint x="420" y="340" as="sourcePoint" />
            <mxPoint x="440" y="270" as="targetPoint" />
            <Array as="points">
              <mxPoint x="440" y="428" />
            </Array>
          </mxGeometry>
        </mxCell>
        <mxCell id="o0W0pkzJsEj7L0cBzfmL-94" value="" style="endArrow=classic;html=1;rounded=0;exitX=1;exitY=0.5;exitDx=0;exitDy=0;endFill=1;entryX=0.004;entryY=0.532;entryDx=0;entryDy=0;entryPerimeter=0;" edge="1" parent="1" source="o0W0pkzJsEj7L0cBzfmL-73" target="o0W0pkzJsEj7L0cBzfmL-63">
          <mxGeometry width="50" height="50" relative="1" as="geometry">
            <mxPoint x="410" y="438" as="sourcePoint" />
            <mxPoint x="480" y="308" as="targetPoint" />
          </mxGeometry>
        </mxCell>
        <mxCell id="o0W0pkzJsEj7L0cBzfmL-96" value="" style="endArrow=none;html=1;rounded=0;" edge="1" parent="1">
          <mxGeometry width="50" height="50" relative="1" as="geometry">
            <mxPoint x="440" y="270" as="sourcePoint" />
            <mxPoint x="440" y="180" as="targetPoint" />
          </mxGeometry>
        </mxCell>
        <mxCell id="o0W0pkzJsEj7L0cBzfmL-97" value="" style="endArrow=none;html=1;rounded=0;entryX=0.997;entryY=0.574;entryDx=0;entryDy=0;entryPerimeter=0;" edge="1" parent="1" target="o0W0pkzJsEj7L0cBzfmL-41">
          <mxGeometry width="50" height="50" relative="1" as="geometry">
            <mxPoint x="440" y="180" as="sourcePoint" />
            <mxPoint x="480" y="210" as="targetPoint" />
          </mxGeometry>
        </mxCell>
      </root>
    </mxGraphModel>
  </diagram>
</mxfile>
